<svg width="21" height="20" viewBox="0 0 21 20" fill="none" xmlns="http://www.w3.org/2000/svg">
<path d="M17.933 10C17.933 9.77 17.923 9.55 17.903 9.32L19.763 7.91C20.163 7.61 20.273 7.05 20.023 6.61L18.153 3.38C17.903 2.94 17.363 2.76 16.903 2.96L14.753 3.87C14.383 3.61 13.993 3.38 13.583 3.19L13.293 0.88C13.233 0.38 12.803 0 12.303 0H8.57302C8.06301 0 7.63302 0.38 7.57302 0.88L7.28302 3.19C6.87302 3.38 6.48301 3.61 6.11301 3.87L3.96301 2.96C3.50301 2.76 2.96301 2.94 2.71301 3.38L0.843015 6.62C0.593015 7.06 0.703015 7.61 1.10301 7.92L2.96301 9.33C2.94301 9.55 2.93301 9.77 2.93301 10C2.93301 10.23 2.94301 10.45 2.96301 10.68L1.10301 12.09C0.703015 12.39 0.593015 12.95 0.843015 13.39L2.71301 16.62C2.96301 17.06 3.50301 17.24 3.96301 17.04L6.11301 16.13C6.48301 16.39 6.87302 16.62 7.28302 16.81L7.57302 19.12C7.63302 19.62 8.06301 20 8.56301 20H12.293C12.793 20 13.223 19.62 13.283 19.12L13.573 16.81C13.983 16.62 14.373 16.39 14.743 16.13L16.893 17.04C17.353 17.24 17.893 17.06 18.143 16.62L20.013 13.39C20.263 12.95 20.153 12.4 19.753 12.09L17.893 10.68C17.923 10.45 17.933 10.23 17.933 10ZM10.473 13.5C8.54302 13.5 6.97301 11.93 6.97301 10C6.97301 8.07 8.54302 6.5 10.473 6.5C12.403 6.5 13.973 8.07 13.973 10C13.973 11.93 12.403 13.5 10.473 13.5Z" fill="#666666"/>
</svg>
