<svg width="50" height="50" viewBox="0 0 50 50" fill="none" xmlns="http://www.w3.org/2000/svg">
<path d="M48.75 21.25H43.75V16.25C43.75 15.5625 43.1875 15 42.5 15H40C39.3125 15 38.75 15.5625 38.75 16.25V21.25H33.75C33.0625 21.25 32.5 21.8125 32.5 22.5V25C32.5 25.6875 33.0625 26.25 33.75 26.25H38.75V31.25C38.75 31.9375 39.3125 32.5 40 32.5H42.5C43.1875 32.5 43.75 31.9375 43.75 31.25V26.25H48.75C49.4375 26.25 50 25.6875 50 25V22.5C50 21.8125 49.4375 21.25 48.75 21.25ZM17.5 25C23.0234 25 27.5 20.5234 27.5 15C27.5 9.47656 23.0234 5 17.5 5C11.9766 5 7.5 9.47656 7.5 15C7.5 20.5234 11.9766 25 17.5 25ZM24.5 27.5H23.1953C21.4609 28.2969 19.5312 28.75 17.5 28.75C15.4688 28.75 13.5469 28.2969 11.8047 27.5H10.5C4.70312 27.5 0 32.2031 0 38V41.25C0 43.3203 1.67969 45 3.75 45H31.25C33.3203 45 35 43.3203 35 41.25V38C35 32.2031 30.2969 27.5 24.5 27.5Z" fill="#27AE60"/>
</svg>
