<svg width="50" height="50" viewBox="0 0 50 50" fill="none" xmlns="http://www.w3.org/2000/svg">
<path d="M17.5 25C23.0234 25 27.5 20.5234 27.5 15C27.5 9.47656 23.0234 5 17.5 5C11.9766 5 7.5 9.47656 7.5 15C7.5 20.5234 11.9766 25 17.5 25ZM24.5 27.5H23.1953C21.4609 28.2969 19.5312 28.75 17.5 28.75C15.4687 28.75 13.5469 28.2969 11.8047 27.5H10.5C4.70312 27.5 0 32.2031 0 38V41.25C0 43.3203 1.67969 45 3.75 45H31.25C33.3203 45 35 43.3203 35 41.25V38C35 32.2031 30.2969 27.5 24.5 27.5ZM49.7343 17.4688L47.5625 15.2734C47.2031 14.9063 46.6172 14.9062 46.25 15.2656L38.0625 23.3906L34.5078 19.8125C34.1484 19.4453 33.5625 19.4453 33.1953 19.8047L31 21.9844C30.6328 22.3437 30.6328 22.9297 30.9922 23.2969L37.375 29.7266C37.7344 30.0937 38.3203 30.0938 38.6875 29.7344L49.7265 18.7812C50.0859 18.4141 50.0937 17.8281 49.7343 17.4688V17.4688Z" fill="#27AE60"/>
</svg>
